<svg width="1400" height="860" viewBox="0 0 1400 860" fill="none" xmlns="http://www.w3.org/2000/svg">
  <rect width="1400" height="860" rx="36" fill="#F5F7F9"/>
  <rect x="56" y="54" width="1288" height="752" rx="28" fill="#FFFFFF" stroke="#D8DEE6"/>

  <text x="96" y="116" fill="#14213D" font-family="-apple-system,BlinkMacSystemFont,Segoe UI,sans-serif" font-size="44" font-weight="700">SnapAI 1.6.26</text>
  <text x="96" y="156" fill="#5D6778" font-family="-apple-system,BlinkMacSystemFont,Segoe UI,sans-serif" font-size="20">macOS 菜单栏 AI 工作台: 任意选中文字、项目记忆、命令面板、知识库与安全写回</text>

  <rect x="96" y="204" width="374" height="452" rx="18" fill="#F8FAFC" stroke="#D7DEE8"/>
  <rect x="122" y="230" width="322" height="48" rx="12" fill="#EEF3F8"/>
  <circle cx="146" cy="254" r="8" fill="#31C48D"/>
  <text x="166" y="262" fill="#172033" font-family="-apple-system,BlinkMacSystemFont,Segoe UI,sans-serif" font-size="18" font-weight="650">设置中心</text>
  <rect x="122" y="304" width="118" height="296" rx="12" fill="#EAF0F6"/>
  <rect x="140" y="326" width="82" height="14" rx="7" fill="#8DA2B8"/>
  <rect x="140" y="366" width="82" height="14" rx="7" fill="#AAB8C8"/>
  <rect x="140" y="406" width="82" height="14" rx="7" fill="#AAB8C8"/>
  <rect x="140" y="446" width="82" height="14" rx="7" fill="#AAB8C8"/>
  <rect x="140" y="486" width="82" height="14" rx="7" fill="#AAB8C8"/>
  <rect x="264" y="304" width="156" height="56" rx="12" fill="#FFFFFF" stroke="#D7DEE8"/>
  <text x="286" y="339" fill="#273244" font-family="-apple-system,BlinkMacSystemFont,Segoe UI,sans-serif" font-size="17" font-weight="600">AI 供应商</text>
  <rect x="264" y="378" width="156" height="56" rx="12" fill="#FFFFFF" stroke="#D7DEE8"/>
  <text x="286" y="413" fill="#273244" font-family="-apple-system,BlinkMacSystemFont,Segoe UI,sans-serif" font-size="17" font-weight="600">快捷键</text>
  <rect x="264" y="452" width="156" height="56" rx="12" fill="#FFFFFF" stroke="#D7DEE8"/>
  <text x="286" y="487" fill="#273244" font-family="-apple-system,BlinkMacSystemFont,Segoe UI,sans-serif" font-size="17" font-weight="600">隐私保护</text>
  <rect x="264" y="526" width="156" height="56" rx="12" fill="#FFFFFF" stroke="#D7DEE8"/>
  <text x="286" y="561" fill="#273244" font-family="-apple-system,BlinkMacSystemFont,Segoe UI,sans-serif" font-size="17" font-weight="600">权限健康</text>

  <rect x="514" y="204" width="364" height="214" rx="18" fill="#101827"/>
  <rect x="544" y="234" width="304" height="46" rx="12" fill="#1B2738"/>
  <text x="566" y="263" fill="#FFFFFF" font-family="-apple-system,BlinkMacSystemFont,Segoe UI,sans-serif" font-size="18" font-weight="650">Command K</text>
  <rect x="544" y="302" width="304" height="28" rx="8" fill="#27364A"/>
  <rect x="544" y="344" width="304" height="28" rx="8" fill="#1E2A3B"/>
  <rect x="544" y="386" width="220" height="10" rx="5" fill="#6ED3FF"/>
  <text x="566" y="332" fill="#DDE7F3" font-family="-apple-system,BlinkMacSystemFont,Segoe UI,sans-serif" font-size="15">搜索动作、模型、历史、上下文、模板</text>

  <rect x="514" y="442" width="364" height="214" rx="18" fill="#F8FAFC" stroke="#D7DEE8"/>
  <text x="544" y="486" fill="#172033" font-family="-apple-system,BlinkMacSystemFont,Segoe UI,sans-serif" font-size="22" font-weight="700">结果工作台</text>
  <rect x="544" y="516" width="284" height="18" rx="9" fill="#B9C8D8"/>
  <rect x="544" y="548" width="234" height="18" rx="9" fill="#CCD6E2"/>
  <rect x="544" y="592" width="70" height="34" rx="10" fill="#2563EB"/>
  <rect x="628" y="592" width="70" height="34" rx="10" fill="#EAF0F6"/>
  <rect x="712" y="592" width="70" height="34" rx="10" fill="#EAF0F6"/>
  <text x="561" y="615" fill="#FFFFFF" font-family="-apple-system,BlinkMacSystemFont,Segoe UI,sans-serif" font-size="14" font-weight="700">替换</text>
  <text x="645" y="615" fill="#344054" font-family="-apple-system,BlinkMacSystemFont,Segoe UI,sans-serif" font-size="14" font-weight="700">复制</text>
  <text x="729" y="615" fill="#344054" font-family="-apple-system,BlinkMacSystemFont,Segoe UI,sans-serif" font-size="14" font-weight="700">追问</text>

  <rect x="922" y="204" width="374" height="214" rx="18" fill="#F8FAFC" stroke="#D7DEE8"/>
  <text x="952" y="248" fill="#172033" font-family="-apple-system,BlinkMacSystemFont,Segoe UI,sans-serif" font-size="22" font-weight="700">历史知识库</text>
  <rect x="952" y="278" width="294" height="36" rx="12" fill="#FFFFFF" stroke="#D7DEE8"/>
  <rect x="952" y="336" width="294" height="18" rx="9" fill="#B9C8D8"/>
  <rect x="952" y="366" width="220" height="18" rx="9" fill="#CCD6E2"/>
  <circle cx="1224" cy="345" r="10" fill="#F59E0B"/>
  <rect x="952" y="444" width="374" height="212" rx="18" fill="#F8FAFC" stroke="#D7DEE8"/>
  <text x="982" y="488" fill="#172033" font-family="-apple-system,BlinkMacSystemFont,Segoe UI,sans-serif" font-size="22" font-weight="700">权限与更新</text>
  <rect x="982" y="518" width="284" height="28" rx="14" fill="#DCFCE7"/>
  <rect x="982" y="562" width="284" height="28" rx="14" fill="#E0F2FE"/>
  <rect x="982" y="606" width="210" height="28" rx="14" fill="#FEF3C7"/>
  <text x="1004" y="538" fill="#166534" font-family="-apple-system,BlinkMacSystemFont,Segoe UI,sans-serif" font-size="15" font-weight="650">取词 / 写回 / 热键 / 签名诊断</text>
  <text x="1004" y="582" fill="#075985" font-family="-apple-system,BlinkMacSystemFont,Segoe UI,sans-serif" font-size="15" font-weight="650">应用内检查更新与重启</text>
  <text x="1004" y="626" fill="#92400E" font-family="-apple-system,BlinkMacSystemFont,Segoe UI,sans-serif" font-size="15" font-weight="650">复制脱敏诊断与恢复建议</text>

  <rect x="96" y="694" width="1200" height="62" rx="18" fill="#EEF3F8"/>
  <text x="126" y="733" fill="#334155" font-family="-apple-system,BlinkMacSystemFont,Segoe UI,sans-serif" font-size="19" font-weight="650">1.6.26 聚焦:截图诊断逻辑迁入 SnapAILogic。</text>
</svg>
